<svg xmlns="http://www.w3.org/2000/svg" width="174" height="25" viewBox="0 0 174 25" fill="none">
  <path d="M3.42799 3.96438H14.5817V0.831177H0V24.1477H3.42799V14.7565H11.9767V11.6573H3.42799V3.96438Z" fill="white"/>
  <path d="M35.3791 24.1477L30.305 14.7226C33.2026 13.555 35.2306 11.0247 35.2306 7.95943C35.2306 3.9941 31.968 0.831177 27.9758 0.831177H18.29V24.1477H21.7859V15.0198H26.7455L31.3147 24.1477H35.3791ZM21.7817 12.1583V4.06627H27.7085C29.8722 4.06627 31.7686 5.86639 31.7686 8.03161C31.7686 10.3284 29.8722 12.1625 27.7085 12.1625H21.7817V12.1583Z" fill="white"/>
  <path d="M122.415 0.818359H116.204V24.1858H122.415V0.818359Z" fill="white"/>
  <path d="M105.873 0.818359H99.6963V24.1858H113.073V18.3184H105.873V0.818359Z" fill="white"/>
  <path d="M63.4557 21.0442V13.8904H69.3358L70.808 10.7615L63.4557 10.7572V3.96438H74.0239L75.5003 0.831177H60.0277L60.0234 24.1477H64.5036L65.963 21.0442H63.4557Z" fill="white"/>
  <path d="M69.3487 13.8904L70.8251 10.7615H70.8081L69.3359 13.8904H69.3487Z" fill="white"/>
  <path opacity="0.27" d="M69.3487 13.8904L70.8251 10.7615H70.8081L69.3359 13.8904H69.3487Z" fill="white"/>
  <path d="M72.7811 24.1477L74.2109 21.0442H65.9633L64.5039 24.1477H72.7811Z" fill="#BEBEBE"/>
  <path d="M92.4666 16.4505C92.4666 16.4505 92.0933 16.7689 91.8387 16.9769C90.8502 17.7581 89.4756 18.2251 88.1604 18.2251C85.0082 18.2251 82.539 15.6693 82.539 12.4087C82.539 9.09297 84.9955 6.49894 88.1307 6.49894C89.3653 6.49894 90.5914 6.89803 91.546 7.5943C92.0806 8.04857 92.3733 8.33301 92.3733 8.33301L92.8103 8.76182L96.951 4.45259L96.514 4.03229C96.1322 3.66293 95.6316 3.25111 95.6104 3.23412L95.1649 2.88175L95.1606 2.88599C93.0648 1.25995 90.7654 0.5 87.9653 0.5C86.6883 0.5 85.4325 0.712282 84.2276 1.10287L76.7861 16.9005C78.568 21.4602 83.01 24.5 87.9653 24.5C90.7145 24.5 93.2557 23.6042 95.3261 21.9102H95.3473L95.5298 21.7574C96.2128 21.1842 96.531 20.7979 96.5437 20.7809L96.8789 20.3733L92.9079 16.0684L92.4666 16.4505Z" fill="white"/>
  <path d="M55.0088 21.0442H43.8508V13.8904H49.8201L51.2965 10.7615L43.8508 10.7572V3.96438H53.2269L54.7033 0.831177H40.4229V24.1477H53.5493L55.0088 21.0442Z" fill="white"/>
  <path d="M141.804 24.1858L146.772 14.1154L148.375 24.1858H154.586L151.023 0.818359H146.36L139.928 13.9965L133.48 0.818359H128.838L125.236 24.1858H131.473L133.051 14.1154L138.036 24.1858H141.804Z" fill="white"/>
  <path d="M170.423 12.2432C172.01 11.1308 173.431 9.39867 173.431 7.30987C173.431 3.6672 170.177 0.814209 166.024 0.814209H157.407V24.1816H166.499C170.708 24.1816 174 21.231 174 17.4652C174 14.765 172.07 13.139 170.423 12.2432ZM167.534 16.7434C167.534 17.6817 166.788 18.4459 165.867 18.4459H163.597V15.1386H165.549C166.469 15.1344 167.534 15.8391 167.534 16.7434ZM163.597 9.80625V6.59237H165.455C166.372 6.59237 167.059 7.25468 167.059 8.13775C167.059 9.05904 166.338 9.80625 165.455 9.80625H163.597Z" fill="white"/>
</svg>